<svg width="50" height="50" viewBox="0 0 50 50" fill="none" xmlns="http://www.w3.org/2000/svg">
<rect width="50" height="50" rx="25" fill="#141414"/>
<g clip-path="url(#clip0_257_51)">
<path d="M14.3334 23.9947V30C14.3334 31.0609 14.7548 32.0783 15.5049 32.8284C16.2551 33.5786 17.2725 34 18.3334 34H31.6667C32.7276 34 33.745 33.5786 34.4951 32.8284C35.2453 32.0783 35.6667 31.0609 35.6667 30V23.9947L25.5467 28.5493C25.3748 28.6266 25.1885 28.6666 25 28.6666C24.8116 28.6666 24.6253 28.6266 24.4534 28.5493L14.3334 23.9947ZM14.432 21.1147L25 25.872L35.568 21.1147C35.3673 20.2301 34.8718 19.44 34.1629 18.874C33.454 18.3081 32.5738 17.9999 31.6667 18H18.3334C17.4263 17.9999 16.5461 18.3081 15.8372 18.874C15.1283 19.44 14.6328 20.2301 14.432 21.1147Z" fill="white"/>
</g>
<defs>
<clipPath id="clip0_257_51">
<rect width="24" height="24" fill="white" transform="translate(13 13)"/>
</clipPath>
</defs>
</svg>
