<svg width="50" height="50" viewBox="0 0 50 50" fill="none" xmlns="http://www.w3.org/2000/svg">
<rect width="50" height="50" rx="25" fill="#141414"/>
<path d="M28.2475 29.11L29.9275 27.43C30.1538 27.2066 30.44 27.0536 30.7516 26.9897C31.0631 26.9258 31.3865 26.9537 31.6825 27.07L33.73 27.8875C34.0291 28.0089 34.2856 28.2162 34.4671 28.4831C34.6486 28.75 34.747 29.0647 34.75 29.3875V33.1375C34.7482 33.3571 34.7021 33.5741 34.6143 33.7753C34.5265 33.9766 34.3989 34.158 34.2391 34.3087C34.0793 34.4594 33.8907 34.5761 33.6847 34.652C33.4786 34.7278 33.2593 34.7612 33.04 34.75C18.6925 33.8575 15.7975 21.7075 15.25 17.0575C15.2246 16.8292 15.2478 16.598 15.3181 16.3793C15.3884 16.1606 15.5043 15.9592 15.658 15.7885C15.8118 15.6177 15.9999 15.4815 16.2101 15.3887C16.4203 15.2959 16.6477 15.2486 16.8775 15.25H20.5C20.8232 15.251 21.1388 15.3486 21.4061 15.5304C21.6734 15.7122 21.8803 15.9698 22 16.27L22.8175 18.3175C22.9377 18.6123 22.9683 18.936 22.9056 19.2481C22.8429 19.5603 22.6897 19.847 22.465 20.0725L20.785 21.7525C20.785 21.7525 21.7525 28.3 28.2475 29.11Z" fill="white"/>
</svg>
