<svg width="50" height="50" viewBox="0 0 50 50" fill="none" xmlns="http://www.w3.org/2000/svg">
<rect width="50" height="50" rx="25" fill="#141414"/>
<path d="M15.5122 24.749C21.4189 22.209 25.3567 20.5344 27.3256 19.7253C32.9537 17.415 34.1217 17.0137 34.8846 17.0001C35.0524 16.9975 35.4259 17.0384 35.6696 17.2329C35.8722 17.397 35.9292 17.6189 35.9577 17.7746C35.983 17.9303 36.0178 18.285 35.9893 18.5618C35.6855 21.7243 34.3655 29.3986 33.6944 32.9408C33.4127 34.4395 32.8524 34.942 32.3111 34.9911C31.1336 35.098 30.2409 34.2236 29.1014 33.4864C27.3192 32.3323 26.3126 31.6142 24.5811 30.4883C22.5806 29.1871 23.8784 28.4718 25.018 27.303C25.3155 26.9971 30.5005 22.3424 30.5986 21.9202C30.6113 21.8674 30.6239 21.6706 30.5036 21.5668C30.3865 21.4627 30.2124 21.4984 30.0858 21.5265C29.9054 21.5665 27.0597 23.4252 21.5391 27.1024C20.732 27.6505 20.0007 27.9177 19.3423 27.9036C18.6206 27.8883 17.2278 27.4999 16.1927 27.168C14.9266 26.7608 13.9168 26.5455 14.0054 25.854C14.0497 25.494 14.553 25.1255 15.5122 24.749Z" fill="white"/>
</svg>
