<svg width="50" height="50" viewBox="0 0 50 50" fill="none" xmlns="http://www.w3.org/2000/svg">
<rect width="50" height="50" rx="25" fill="#141414"/>
<g clip-path="url(#clip0_257_33)">
<path d="M25.0486 13.7145C28.1603 13.7159 31.0811 14.9175 33.2771 17.0983C35.4735 19.2793 36.6826 22.1784 36.6814 25.2614C36.6787 31.6235 31.4603 36.7993 25.0496 36.7994H25.0447C23.1029 36.7993 21.1916 36.3172 19.4861 35.3961L13.3191 36.9996L14.9695 31.0211C13.9514 29.2712 13.4162 27.2858 13.4167 25.2526C13.4194 18.8907 18.6372 13.7146 25.0486 13.7145ZM20.7849 19.7291C20.5842 19.7291 20.2579 19.8036 19.9822 20.1022C19.7061 20.4012 18.9285 21.1246 18.9285 22.5944C18.9287 24.064 20.0076 25.4847 20.158 25.6842C20.3109 25.8872 22.2425 28.9963 25.3005 30.193C27.8439 31.1881 28.3618 30.99 28.9138 30.9401C29.466 30.8902 30.6953 30.2177 30.946 29.5201C31.1968 28.8233 31.1969 28.2258 31.1218 28.1002C31.0466 27.9758 30.8456 27.9008 30.5447 27.7516C30.2436 27.6023 28.7632 26.8797 28.4871 26.7799C28.211 26.6803 28.0101 26.6302 27.8093 26.9293C27.6085 27.228 27.0319 27.901 26.8562 28.1002C26.6807 28.2997 26.5047 28.3248 26.2039 28.1754C25.9024 28.0255 24.9331 27.7095 23.783 26.692C22.8881 25.9003 22.2838 24.9229 22.1082 24.6237C21.9326 24.3251 22.0891 24.1631 22.24 24.0143C22.3753 23.8804 22.5415 23.6652 22.6921 23.4908C22.8422 23.3164 22.8926 23.192 22.9929 22.9928C23.0933 22.7934 23.0427 22.6188 22.9675 22.4694C22.8917 22.319 22.3074 20.842 22.0398 20.2516C21.8143 19.7544 21.5765 19.7447 21.3621 19.736C21.1864 19.7285 20.9855 19.7291 20.7849 19.7291Z" fill="white"/>
</g>
<defs>
<clipPath id="clip0_257_33">
<rect width="24" height="24" fill="white" transform="translate(13 13)"/>
</clipPath>
</defs>
</svg>
